<?xml version="1.0" standalone="no"?>
<!DOCTYPE svg PUBLIC "-//W3C//DTD SVG 20010904//EN"
 "http://www.w3.org/TR/2001/REC-SVG-20010904/DTD/svg10.dtd">
<svg version="1.0" xmlns="http://www.w3.org/2000/svg"
 width="512.000000pt" height="512.000000pt" viewBox="0 0 512.000000 512.000000"
 preserveAspectRatio="xMidYMid meet">

<g transform="translate(0.000000,512.000000) scale(0.100000,-0.100000)"
fill="#000000" stroke="none">
<path d="M0 2560 l0 -2560 2560 0 2560 0 0 2560 0 2560 -2560 0 -2560 0 0
-2560z m3222 1807 c68 -33 141 -110 175 -183 13 -29 26 -83 31 -125 l7 -74
111 -5 c103 -5 117 -9 185 -42 117 -58 211 -162 261 -289 18 -46 22 -84 28
-269 4 -118 5 -218 3 -222 -2 -5 -58 -8 -123 -8 l-119 0 -3 193 c-3 218 -12
249 -90 326 -79 80 -18 76 -1128 76 -1111 0 -1047 4 -1130 -77 -76 -73 -85
-105 -88 -325 l-4 -193 -118 0 -118 0 -8 67 c-8 79 3 310 18 373 28 116 101
229 193 300 81 62 141 82 270 89 l110 6 6 72 c15 160 126 298 266 332 21 5
301 9 623 8 l585 -2 57 -28z m-985 -867 c48 -21 120 -89 157 -148 14 -22 29
-43 33 -45 5 -3 39 2 76 11 62 15 74 15 127 1 l59 -15 37 53 c97 142 223 199
295 135 75 -67 6 -187 -88 -151 -27 10 -31 8 -84 -50 l-56 -60 29 -58 c51
-105 47 -189 -12 -271 l-30 -42 -223 0 -223 0 -27 42 c-57 88 -59 170 -8 269
l28 57 -43 55 c-50 63 -64 70 -100 56 -69 -25 -137 45 -114 117 22 65 86 81
167 44z m-133 -581 c20 -16 26 -29 26 -59 0 -77 -3 -79 -415 -179 -593 -144
-787 -189 -838 -196 -60 -8 -144 15 -187 51 -100 85 -107 260 -14 345 67 61
29 58 745 59 649 0 657 0 683 -21z m2317 -14 c88 -62 121 -196 71 -291 -31
-60 -94 -111 -153 -123 -61 -13 -132 -1 -459 78 -135 32 -371 89 -525 125
-154 37 -296 74 -316 83 -61 25 -78 95 -34 139 l25 24 674 -2 674 -3 43 -30z
m-1508 -285 c55 -44 110 -136 141 -237 l7 -23 -500 0 -499 0 10 38 c17 60 63
143 108 195 l42 47 333 0 c318 0 333 -1 358 -20z m-1055 -262 c-17 -89 -4
-262 26 -348 75 -217 256 -394 467 -456 46 -14 49 -17 89 -97 52 -104 74 -127
117 -127 45 0 70 26 122 127 41 79 44 82 94 99 119 38 253 129 335 227 54 65
127 211 148 297 13 49 15 96 12 196 l-4 130 105 -61 c58 -34 145 -85 193 -113
97 -58 138 -65 175 -30 32 30 31 91 -3 141 l-25 38 23 -6 c75 -17 369 -87 401
-96 l37 -10 0 -434 c0 -460 -3 -499 -48 -595 -32 -69 -122 -159 -188 -189
l-50 -23 4 -107 c3 -78 0 -123 -12 -170 -42 -165 -197 -262 -371 -232 -116 20
-193 74 -240 167 -28 55 -30 68 -33 192 l-4 132 -668 0 -668 0 -4 -132 c-3
-130 -4 -134 -39 -198 -123 -228 -474 -222 -583 9 -30 65 -31 69 -29 202 l2
136 -42 19 c-63 29 -148 105 -184 165 -61 102 -63 127 -61 619 l3 443 55 13
c30 7 126 29 213 49 86 20 165 39 174 42 11 5 9 -4 -11 -33 -51 -76 -27 -164
47 -164 33 0 55 12 302 158 66 39 123 71 126 72 4 0 2 -24 -3 -52z m1192 -267
c0 -33 -68 -155 -118 -211 l-49 -55 -89 -6 c-49 -4 -186 -8 -305 -8 l-215 -1
-42 31 c-49 36 -102 106 -137 180 -45 98 -92 89 465 89 472 0 490 -1 490 -19z"/>
<path d="M2043 4169 c-68 -20 -101 -95 -69 -158 27 -51 29 -51 577 -51 547 0
557 1 593 51 39 56 1 138 -72 159 -47 13 -984 12 -1029 -1z"/>
<path d="M1394 1786 c-188 -88 -190 -357 -2 -450 96 -48 208 -25 290 59 148
153 33 415 -182 415 -37 0 -72 -8 -106 -24z"/>
<path d="M3531 1797 c-53 -20 -111 -76 -137 -131 -80 -172 56 -372 240 -353
120 12 216 104 232 220 13 95 -47 206 -138 253 -42 22 -152 28 -197 11z"/>
</g>
</svg>
